<svg xmlns="http://www.w3.org/2000/svg" viewBox="0 0 512 512" width="32" height="32">
  <path fill="#1572B6" d="M30,0 L71,460 L255,512 L440,460 L481,0"/>
  <path fill="#33A9DC" d="M256,472 L405,431 L440,37 L256,37"/>
  <path fill="#EBEBEB" d="M256,208 L181,208 L176,150 L256,150 L256,94 L255,94 L111,94 L112,109 L129,265 L256,265 zM256,355 L255,355 L192,339 L188,293 L132,293 L141,382 L255,414 L256,414 z"/>
  <path fill="#FFFFFF" d="M255,208 L255,265 L319,265 L315,311 L255,327 L255,384 L371,355 L372,350 L385,223 L387,208 zM255,94 L255,129 L255,150 L362,150 L363,150 L365,129 L367,109 L368,94 z"/>
</svg>