<svg xmlns="http://www.w3.org/2000/svg" viewBox="0 0 512 149" width="80" height="24">
  <path fill="#000000" d="M3.5,107.5h28.5v7H3.5V107.5z M3.5,40h28.5v7H3.5V40z M3.5,3.5h28.5v7H3.5V3.5z
    M46.5,3.5h28.5v111H46.5V3.5z M89.5,3.5h28.5v7H89.5V3.5z M89.5,40h28.5v7H89.5V40z M89.5,107.5h28.5v7H89.5V107.5z
    M132.5,3.5h28.5v111h-28.5V3.5z M175.5,3.5h28.5v7h-28.5V3.5z M175.5,40h28.5v7h-28.5V40z
    M175.5,107.5h28.5v7h-28.5V107.5z M218.5,3.5h28.5v111h-28.5V3.5z
    M261.5,3.5h28.5v7h-28.5V3.5z M261.5,40h28.5v7h-28.5V40z M261.5,107.5h28.5v7h-28.5V107.5z
    M304.5,3.5h28.5v111h-28.5V3.5z M347.5,3.5h28.5v7h-28.5V3.5z M347.5,40h28.5v7h-28.5V40z
    M347.5,107.5h28.5v7h-28.5V107.5z M390.5,3.5h28.5v111h-28.5V3.5z
    M433.5,3.5h28.5v7h-28.5V3.5z M433.5,40h28.5v7h-28.5V40z M433.5,107.5h28.5v7h-28.5V107.5z
    M476.5,3.5h28.5v111h-28.5V3.5z"/>
</svg>