<svg xmlns="http://www.w3.org/2000/svg" viewBox="0 0 630 630" width="32" height="32">
  <rect width="630" height="630" fill="#F7DF1E"/>
  <path d="M423.2,482.15c-24.84,0-40.5-11.52-48.6-22.68l-41.04,24.84c15.12,28.08,47.52,52.92,91.8,52.92
    c72.36,0,113.4-36.72,113.4-105.84c0-90-124.2-84.24-124.2-121.32c0-13.5,10.26-24.3,36.72-24.3
    c24.3,0,38.88,10.8,47.52,28.08l40.5-25.38c-14.58-33.48-48.06-52.92-91.8-52.92c-66.96,0-104.22,34.56-104.22,89.64
    c0,84.78,124.74,80.46,124.74,122.94c0,15.66-13.5,26.46-41.58,26.46V482.15z
    M227.88,482.15c-58.32,0-93.96-28.08-93.96-95.94V216.35h60.48v162c0,39.96,12.42,58.32,39.42,58.32
    c25.38,0,41.58-17.28,41.58-58.32v-162h60.48v169.74C336.48,447.59,299.16,482.15,227.88,482.15z" fill="#000"/>
</svg>