<svg xmlns="http://www.w3.org/2000/svg" viewBox="0 0 256 289" width="28" height="32">
  <path fill="#539E43" d="M128,288.5c-3.5,0-6.8-0.9-9.8-2.7l-31.4-18.6c-4.7-2.6-2.4-3.5-0.9-4.1
    c6.3-2.2,7.6-2.7,14.3-6.6c0.7-0.4,1.6-0.2,2.3,0.2l24.1,14.3c0.9,0.5,2.1,0.5,2.9,0l94-54.3c0.9-0.5,1.5-1.5,1.5-2.6V75.7
    c0-1.1-0.6-2.1-1.5-2.6l-94-54.3c-0.9-0.5-2-0.5-2.9,0l-94,54.3c-0.9,0.5-1.5,1.5-1.5,2.6v108.5c0,1,0.6,2,1.5,2.6
    l25.7,14.9c14,7,22.6-1.2,22.6-9.5V83.8c0-1.5,1.2-2.7,2.7-2.7h12c1.5,0,2.7,1.2,2.7,2.7v107.2c0,18.7-10.2,29.4-28,29.4
    c-5.5,0-9.8,0-21.8-5.9l-24.6-14.2c-6-3.5-9.8-10.1-9.8-17.2V75.7c0-7.1,3.7-13.7,9.8-17.2l94-54.3c5.8-3.3,13.5-3.3,19.3,0
    l94,54.3c6,3.5,9.8,10.1,9.8,17.2v108.5c0,7.1-3.7,13.7-9.8,17.2l-94,54.3C134.8,287.6,131.5,288.5,128,288.5z
    M234.5,137.5c0-14.9-10.1-18.7-27.9-26.8l-9.4-4.5c-0.9-0.4-1.5-1.3-1.5-2.3v-6c0-1.3,0.7-2.5,1.8-3.1l32.6-18.8
    c1.1-0.6,2.4-0.6,3.5,0l13.8,8c6.5,3.7,10.5,10.6,10.5,18.1V137.5z"/>
</svg>