<svg xmlns="http://www.w3.org/2000/svg" viewBox="0 0 256 255" width="32" height="32">
  <defs>
    <linearGradient id="py-blue" x1="0%" y1="0%" x2="0%" y2="100%">
      <stop offset="0%" style="stop-color:#387EB8"/>
      <stop offset="100%" style="stop-color:#366994"/>
    </linearGradient>
    <linearGradient id="py-yellow" x1="0%" y1="0%" x2="0%" y2="100%">
      <stop offset="0%" style="stop-color:#FFE052"/>
      <stop offset="100%" style="stop-color:#FFC331"/>
    </linearGradient>
  </defs>
  <path fill="url(#py-blue)" d="M126.9,0.5c-64.5,0-60.4,28-60.4,28l0.1,29h61.5v8.7H48.6c0,0-35.2-4-35.2,51.4
    c0,55.4,30.6,53.4,30.6,53.4h18.2v-25.7c0,0-1-30.6,30.1-30.6h51.7c0,0,29.1,0.5,29.1-28.1V29.4
    C173.1,29.4,176.9,0.5,126.9,0.5z M92.2,16.8c6.1,0,11.1,5,11.1,11.1c0,6.1-5,11.1-11.1,11.1c-6.1,0-11.1-5-11.1-11.1
    C81.1,21.8,86.1,16.8,92.2,16.8z"/>
  <path fill="url(#py-yellow)" d="M128.5,254.5c64.5,0,60.4-28,60.4-28l-0.1-29h-61.5v-8.7h79.5c0,0,35.2,4,35.2-51.4
    c0-55.4-30.6-53.4-30.6-53.4h-18.2v25.7c0,0,1,30.6-30.1,30.6h-51.7c0,0-29.1-0.5-29.1,28.1v47.4
    C82.4,225.6,78.6,254.5,128.5,254.5z M163.2,238.2c-6.1,0-11.1-5-11.1-11.1c0-6.1,5-11.1,11.1-11.1
    c6.1,0,11.1,5,11.1,11.1C174.3,233.2,169.3,238.2,163.2,238.2z"/>
</svg>