<svg xmlns="http://www.w3.org/2000/svg" viewBox="0 0 1000 1000" width="32" height="32">
  <path fill="#06B6D4" d="M489.5,226.5C438.9,336.8,338.3,400,200,400c0,0,0,0,0,0c-0.3,0-0.6,0-0.9,0
    c-0.3,0-0.6,0-0.9,0c0,0,0,0,0,0c138.3,0,238.9,63.2,289.5,173.5C538.3,483.2,638.9,420,777.2,420c0,0,0,0,0,0
    c0.3,0,0.6,0,0.9,0c0.3,0,0.6,0,0.9,0c0,0,0,0,0,0C640.7,420,540.1,483.2,489.5,593.5C438.9,483.2,338.3,420,200,420
    c0,0,0,0,0,0c-0.3,0-0.6,0-0.9,0c-0.3,0-0.6,0-0.9,0c0,0,0,0,0,0c138.3,0,238.9-63.2,289.5-173.5
    C538.3,336.8,638.9,400,777.2,400c0,0,0,0,0,0c0.3,0,0.6,0,0.9,0c0.3,0,0.6,0,0.9,0c0,0,0,0,0,0
    C640.7,400,540.1,336.8,489.5,226.5z"/>
</svg>